# xmcd
#
# Track frame offsets: 
#        150
#        17395
#        37560
#        49553
#        67829
#        87001
#        98518
#        116593
#        142875
#        172852
#
# Disc length: 2653 seconds
#
# Revision: 3
# Processed by: cddbd v1.5.2PL0 Copyright (c) Steve Scherf et al.
# Submitted via: ExactAudioCopy v0.95b2
#
DISCID=5d0a5b0a
DTITLE=The Dramatics - Joy Ride
DYEAR=1976
DGENRE=R&B
TTITLE0=After This Dance
TTITLE1=Be My Girl
TTITLE2=Finger Fever
TTITLE3=I Can't Get Over You
TTITLE4=I Get Carried Away
TTITLE5=Richest Man Alive
TTITLE6=Say The Word
TTITLE7=Sundown Is Coming (Hold Back The Night)
TTITLE8=Welcome Back Home
TTITLE9=Shake It Well
EXTD=
EXTT0=
EXTT1=
EXTT2=
EXTT3=
EXTT4=
EXTT5=
EXTT6=
EXTT7=
EXTT8=
EXTT9=
PLAYORDER=
